<svg xmlns="http://www.w3.org/2000/svg" width="1200" height="700" viewBox="0 0 1200 700"><rect width="1200" height="700" fill="#0b1020"/><rect x="60" y="50" width="1080" height="90" rx="20" fill="#18233f" stroke="#2f4277"/><text x="90" y="108" fill="#eef3ff" font-family="Arial" font-size="30" font-weight="700">Export mock</text><text x="270" y="108" fill="#a5b2d6" font-family="Arial" font-size="18">JSON, HTML, PPTX and Automation Pack outputs</text><rect x="85" y="180" width="300" height="420" rx="22" fill="#18233f" stroke="#2f4277"/><rect x="450" y="180" width="300" height="420" rx="22" fill="#18233f" stroke="#2f4277"/><rect x="815" y="180" width="300" height="420" rx="22" fill="#18233f" stroke="#2f4277"/><text x="120" y="240" fill="#eef3ff" font-family="Arial" font-size="24" font-weight="700">JSON</text><text x="120" y="280" fill="#a5b2d6" font-family="Arial" font-size="16">Plan, config, shots, voice-over</text><text x="485" y="240" fill="#eef3ff" font-family="Arial" font-size="24" font-weight="700">PPTX</text><text x="485" y="280" fill="#a5b2d6" font-family="Arial" font-size="16">Deck generat automat pentru review</text><text x="850" y="240" fill="#eef3ff" font-family="Arial" font-size="24" font-weight="700">Automation Pack</text><text x="850" y="280" fill="#a5b2d6" font-family="Arial" font-size="16">Playwright + FFmpeg runner local</text><rect x="120" y="340" width="230" height="46" rx="14" fill="#20315b" stroke="#7c9cff"/><rect x="485" y="340" width="230" height="46" rx="14" fill="#20315b" stroke="#7c9cff"/><rect x="850" y="340" width="230" height="46" rx="14" fill="#20315b" stroke="#7c9cff"/><text x="156" y="370" fill="#eef3ff" font-family="Arial" font-size="18">download plan.json</text><text x="540" y="370" fill="#eef3ff" font-family="Arial" font-size="18">download demo-plan.pptx</text><text x="900" y="370" fill="#eef3ff" font-family="Arial" font-size="18">download automation.zip</text></svg>